<svg id="Layer_1" data-name="Layer 1" xmlns="http://www.w3.org/2000/svg" viewBox="0 0 54.92 42.32"><defs><style>.cls-1{fill:#fbf301;}</style></defs><title>small_O</title><path class="cls-1" d="M87.81,25.79c1.9-1.64,3.89-3.32,6-5,0,0-2.94,1.55-7.59,4.15C86.73,25.19,87.28,25.48,87.81,25.79Z" transform="translate(-44.54 -14.84)"/><path class="cls-1" d="M99.46,20.76,96.09,21.9a1.84,1.84,0,0,0-1.18,1.19l-1.15,3.59-1.15-3.59a1.83,1.83,0,0,0-1.17-1.19l-3.37-1.14,3.37-1.14a1.83,1.83,0,0,0,1.17-1.19l1.15-3.59,1.15,3.59a1.84,1.84,0,0,0,1.18,1.19l3.37,1.14" transform="translate(-44.54 -14.84)"/><path class="cls-1" d="M58.14,41.9a7.93,7.93,0,0,1-.4-2.5c0-5.5,5.37-9.47,12.85-9.47a18.19,18.19,0,0,1,5.45.8c3.82-2.26,7.29-4.23,10.13-5.82a35.59,35.59,0,0,0-15.58-3.37c-14,0-26.05,7-26.05,17.86a14,14,0,0,0,3.68,9.41C51.4,46.47,54.75,44.15,58.14,41.9Z" transform="translate(-44.54 -14.84)"/><path class="cls-1" d="M87.81,25.79q-4.2,3.63-7.85,7a8.28,8.28,0,0,1,3.41,6.66c0,5.5-5.29,9.42-12.78,9.42a17.75,17.75,0,0,1-6.18-1C60,52.31,57.74,55,57.74,55a37.49,37.49,0,0,0,12.85,2.17c13.91,0,26-6.87,26-17.76C96.57,33.61,93.13,28.92,87.81,25.79Z" transform="translate(-44.54 -14.84)"/></svg>