<svg id="Layer_1" data-name="Layer 1" xmlns="http://www.w3.org/2000/svg" viewBox="0 0 1310.18 531.94"><defs><style>.cls-1{fill:#fbf301;}</style></defs><title>Untitled-4</title><path class="cls-1" d="M1172,520.27a228.44,228.44,0,0,0-32.56-2.31c-29.56,0-57.62,5.51-81.23,15.6C1098.71,528.7,1136.78,524.27,1172,520.27Z" transform="translate(-265.82 -274.33)"/><path class="cls-1" d="M950.29,546.82v-4.21c0-13.63-15.7-24.65-35.41-24.65-19.32,0-35.42,11-35.42,24.65v13.27Q915.66,551.18,950.29,546.82Z" transform="translate(-265.82 -274.33)"/><path class="cls-1" d="M1172,520.27q6.81,1,13.4,2.38c40.84-6.36,80.2-12,117.26-16.72C1265.7,509.84,1221.73,514.62,1172,520.27Z" transform="translate(-265.82 -274.33)"/><path class="cls-1" d="M1336.12,505.93l-19.82,6.68a10.88,10.88,0,0,0-6.91,7l-6.76,21.11-6.76-21.11a10.88,10.88,0,0,0-6.9-7l-19.82-6.68,19.82-6.68a10.88,10.88,0,0,0,6.9-7l6.76-21.11,6.76,21.11a10.88,10.88,0,0,0,6.91,7l19.82,6.68" transform="translate(-265.82 -274.33)"/><path class="cls-1" d="M1576,693.14c0,15.67-18.51,27.85-41,27.85-14.09,0-26.56-4.93-34.21-12.47l-105-102.68v92.24c0,12.76-15.29,22.91-33.8,22.91-18.92,0-33.81-10.15-33.81-22.91V545.8c0-15.37,18.11-27.84,40.65-27.84,14.08,0,26.55,5.22,34.2,12.76l105.43,102.1V541.16c0-12.76,14.89-23.2,33.8-23.2,18.51,0,33.8,10.44,33.8,23.2Z" transform="translate(-265.82 -274.33)"/><path class="cls-1" d="M366.52,792.81V752.69c0-1.36,1.43-2.12,4-2.12h1.32c2.57,0,4,.76,4,2.12v40.12c0,1.36-1.43,2.13-4,2.13h-1.32C368,794.94,366.52,794.17,366.52,792.81Z" transform="translate(-265.82 -274.33)"/><path class="cls-1" d="M467.12,776.16v16.65c0,1.36-1.44,2.13-4,2.13h-1.06c-2.58,0-4-.77-4-2.13V776.46c0-8.65-6.4-12.84-20.62-12.84-14.39,0-20.38,5.09-20.38,13.89v15.3c0,1.36-1.44,2.13-4,2.13H412c-2.57,0-4-.77-4-2.13V762c0-1.37,1.44-2.13,4-2.13H413c2.57,0,4,.76,4,2.13v5.4c2.93-4.62,10.57-8.11,22.55-8.11C458.26,759.3,467.12,765.07,467.12,776.16Z" transform="translate(-265.82 -274.33)"/><path class="cls-1" d="M493.93,788.83c-1.59-1.14-.86-2.26,1.74-2.73l.89-.15a7.21,7.21,0,0,1,5.32.8c4.88,3,12.52,4.5,20.88,4.5,11.57,0,18.66-2.36,18.66-6.23,0-9.23-45.55-2.6-45.55-16,0-6,11.36-9.77,26-9.77,9.52,0,19.39,2.09,25,5.42,1.83,1.07,1.22,2.2-1.27,2.72l-.84.19a8.47,8.47,0,0,1-5.38-.7A42.17,42.17,0,0,0,522,763.43c-10.29,0-17.13,2-17.13,5.44,0,9.18,45.74,2.36,45.74,16,0,6.36-11.34,10.63-27.8,10.63C510.88,795.55,499.52,792.92,493.93,788.83Z" transform="translate(-265.82 -274.33)"/><path class="cls-1" d="M577.08,804.15V762c0-1.37,1.44-2.13,4-2.13h1.06c2.57,0,4,.76,4,2.13v5.74c4-5.64,13.69-8.66,25.36-8.66,15.74,0,31.05,5.54,31.05,18.26s-15.42,18.17-31.22,18.17c-11.56,0-21.24-3.06-25.19-8.67v17.3c0,1.36-1.44,2.12-4,2.12h-1.06C578.52,806.27,577.08,805.51,577.08,804.15Zm56.42-26.8c0-8.66-9.38-14-23.65-14-14.44,0-23.88,5.31-23.88,14s9.44,13.94,23.65,13.94C624,791.29,633.5,785.92,633.5,777.35Z" transform="translate(-265.82 -274.33)"/><path class="cls-1" d="M668.86,777.41c0-10.79,13.41-18.2,32.88-18.2,19.17,0,31.41,6.77,31.79,17,.06,1.4-1.44,2.13-4,2.13H677.94c.25,8.16,9.6,13.07,24.56,13.07,9.08,0,14.92-1.6,19.56-4.59a7.54,7.54,0,0,1,5.19-1.12l1.07.19c2.7.44,3.3,1.26,1.85,2.44-5.88,4.76-15.07,7.31-27.8,7.31C682.09,795.61,668.86,788.38,668.86,777.41Zm33-14.14c-12.91,0-22,4.06-23.59,11h46.43C724,767.56,715.4,763.27,701.87,763.27Z" transform="translate(-265.82 -274.33)"/><path class="cls-1" d="M759.83,777.41c0-10.63,13.46-18.2,32.19-18.2,13.32,0,22.72,2.81,28.13,8.07,1.32,1.34.42,2.28-2.12,2.65l-.86.14a6.11,6.11,0,0,1-5.19-1.22c-4.23-3.52-10.78-5.38-19.65-5.38-13.77,0-23.42,5.7-23.42,13.94s9.65,13.91,23.42,13.91c8.74,0,15.29-1.9,19.52-5.35a5.94,5.94,0,0,1,5.14-1.22l.7.14c2.77.48,3.71,1.21,2.52,2.45-5.29,5.3-14.94,8.27-28.19,8.27C773.48,795.61,759.83,788.14,759.83,777.41Z" transform="translate(-265.82 -274.33)"/><path class="cls-1" d="M853.17,780.68V763.79h-5.9c-2.57,0-4-.66-4-2s1.25-1.94,3.52-1.94h6.39v-4.64c0-1.27,1.12-2,3.53-2.29l1.18-.12c2.77-.32,4.43.35,4.43,1.84v5.21H879c2.64,0,4,.67,4,1.94s-1.44,2-4,2H862.31v16.65c0,10.15,7.46,10.94,16.56,10.89,2.52,0,4.14.46,4.42,1.66.33,1.37-.71,2.15-3.62,2.32-1.26.08-2.42.09-3.35.09C860.1,795.4,853.17,791.46,853.17,780.68Z" transform="translate(-265.82 -274.33)"/><path class="cls-1" d="M908.17,752.17c0-1.73,2.43-2.83,5.64-2.83,3,0,5.64,1.1,5.64,2.83s-2.62,2.82-5.64,2.82C910.6,755,908.17,753.87,908.17,752.17Zm1.06,40.64V762c0-1.37,1.41-2.13,3.92-2.13h1.1c2.51,0,3.91.76,3.91,2.13v30.8c0,1.36-1.4,2.13-3.91,2.13h-1.1C910.64,794.94,909.23,794.17,909.23,792.81Z" transform="translate(-265.82 -274.33)"/><path class="cls-1" d="M947.3,777.41c0-12.62,16.19-18.2,32.73-18.2s32.89,5.58,32.89,18.2-16.24,18.32-32.72,18.32C963.49,795.73,947.3,790.16,947.3,777.41Zm56.54,0c0-8.57-9.54-13.94-23.81-13.94s-23.65,5.31-23.65,13.94,9.38,14,23.82,14C994.41,791.44,1003.84,786.07,1003.84,777.41Z" transform="translate(-265.82 -274.33)"/><path class="cls-1" d="M1100.66,776.16v16.65c0,1.36-1.43,2.13-4,2.13h-1.06c-2.57,0-4-.77-4-2.13V776.46c0-8.65-6.4-12.84-20.61-12.84-14.4,0-20.39,5.09-20.39,13.89v15.3c0,1.36-1.43,2.13-4,2.13h-1.07c-2.57,0-4-.77-4-2.13V762c0-1.37,1.43-2.13,4-2.13h1.07c2.57,0,4,.76,4,2.13v5.4c2.93-4.62,10.58-8.11,22.56-8.11C1091.81,759.3,1100.66,765.07,1100.66,776.16Z" transform="translate(-265.82 -274.33)"/><path class="cls-1" d="M1127.47,788.83c-1.59-1.14-.86-2.26,1.75-2.73l.89-.15a7.18,7.18,0,0,1,5.31.8c4.88,3,12.52,4.5,20.88,4.5,11.58,0,18.66-2.36,18.66-6.23,0-9.23-45.55-2.6-45.55-16,0-6,11.36-9.77,26-9.77,9.52,0,19.38,2.09,25,5.42,1.83,1.07,1.22,2.2-1.27,2.72l-.83.19a8.45,8.45,0,0,1-5.38-.7,42.21,42.21,0,0,0-17.39-3.47c-10.3,0-17.13,2-17.13,5.44,0,9.18,45.74,2.36,45.74,16,0,6.36-11.34,10.63-27.81,10.63C1144.42,795.55,1133.06,792.92,1127.47,788.83Z" transform="translate(-265.82 -274.33)"/><path class="cls-1" d="M1259.57,792.81V752.69c0-1.36,1.44-2.12,4-2.12h1.31c2.57,0,4,.76,4,2.12v37.66h34.9c2.58,0,4,.76,4,2.12v.34c0,1.36-1.43,2.13-4,2.13h-40.22C1261,794.94,1259.57,794.17,1259.57,792.81Z" transform="translate(-265.82 -274.33)"/><path class="cls-1" d="M1335.3,792.81V752.69c0-1.36,1.44-2.12,4-2.12h1.31c2.57,0,4,.76,4,2.12v37.66h34.9c2.58,0,4,.76,4,2.12v.34c0,1.36-1.43,2.13-4,2.13h-40.22C1336.74,794.94,1335.3,794.17,1335.3,792.81Z" transform="translate(-265.82 -274.33)"/><path class="cls-1" d="M1401,772.87c0-15.75,19.18-22.85,38.94-22.85,13.68,0,28.63,3.3,35,12.43,1,1.4-.36,2.38-2.94,2.67l-1.26.12c-2.45.29-3.84-.21-4.9-1.49-4.83-6-13.9-9.08-25.9-9.08-17.7,0-29.42,7.05-29.42,18.2,0,11.31,11.38,18.11,29.42,18.11,12.29,0,21.53-3.28,26.08-9.47.88-1.28,2.51-1.8,4.9-1.52l1.31.16c2.58.28,3.78,1.49,2.39,3.33-6.32,9-21.18,12.19-34.68,12.19C1420.21,795.67,1401,789.05,1401,772.87Z" transform="translate(-265.82 -274.33)"/><path class="cls-1" d="M673.84,583.87V563.79h53.52c8.45,0,17.3,1.45,23.74,4.93a23.38,23.38,0,0,1,5.19,3.62q36.91-5.07,72.69-9.82c-5.23-11.12-14.14-20.83-26.37-27.74-18.11-10.15-43.46-14.21-70.42-14.21H638.43c-19.72,0-35.41,11-35.41,24.94v48.61Q638.78,588.87,673.84,583.87Z" transform="translate(-265.82 -274.33)"/><path class="cls-1" d="M343.59,634.72a45.08,45.08,0,0,1-2.52-15c0-31.32,30.58-53.94,73.23-53.94,38.92,0,67.44,18.83,72.14,45.92Q523.49,606,560,600.51C547.38,549.8,485,518,414.3,518c-79.67,0-148.48,40-148.48,101.8a77.3,77.3,0,0,0,4.92,27.32Q307.21,640.77,343.59,634.72Z" transform="translate(-265.82 -274.33)"/><path class="cls-1" d="M1194.05,524.69q-89.94,15.84-172.34,31.28c-19.18,16.76-30.79,38.44-30.79,63.79,0,61.2,68.81,101.23,148.49,101.23,79.27,0,148.08-39.16,148.08-101.23C1287.49,572.87,1247.83,538.53,1194.05,524.69Zm-54.64,148.73c-42.66,0-73.24-22.33-73.24-53.66s30.58-53.94,73.24-53.94,72.83,22.62,72.83,53.94S1182.06,673.42,1139.41,673.42Z" transform="translate(-265.82 -274.33)"/><path class="cls-1" d="M879.46,583.19V696.33c0,13.64,16.1,24.66,35.42,24.66,18.91,0,35.41-11,35.41-24.66V569.47Q914,576.42,879.46,583.19Z" transform="translate(-265.82 -274.33)"/><path class="cls-1" d="M793.35,641.52a101.36,101.36,0,0,0,10.87-6.09c19.1-12.47,28.17-27.73,29.86-43.28C747.05,609.47,669.59,625.64,603,640v56.35C603,710,618.71,721,638.43,721c18.91,0,35.41-11,35.41-24.66V653.7h48.69l46.28,55.4c6.44,7.83,17.7,11.89,29.78,11.89,19.31,0,35.81-12.18,35.81-25.82A18.42,18.42,0,0,0,829.57,683Z" transform="translate(-265.82 -274.33)"/><path class="cls-1" d="M327.6,703c24.69,11.61,54.82,18,86.7,18,65.41,0,123.65-26.67,142-70.86C410,682.22,327.73,702.93,327.6,703Z" transform="translate(-265.82 -274.33)"/><path class="cls-1" d="M1180.29,521.58c4.06.73,9.06,1.76,13.76,3.11q53-9.35,108.58-18.76Z" transform="translate(-265.82 -274.33)"/><polygon class="cls-1" points="655.09 0 353.22 110.58 353.22 87.34 294.22 87.34 294.22 132.19 0 239.96 655.09 72.93 1310.18 239.67 655.09 0"/></svg>